<mxfile host="65bd71144e">
    <diagram id="BxamdXzuv56qIYzdD-CP" name="Page-1">
        <mxGraphModel dx="1216" dy="827" grid="1" gridSize="10" guides="1" tooltips="1" connect="1" arrows="1" fold="1" page="1" pageScale="1" pageWidth="827" pageHeight="1169" math="0" shadow="0">
            <root>
                <mxCell id="0"/>
                <mxCell id="1" parent="0"/>
                <mxCell id="2" value="" style="rounded=1;whiteSpace=wrap;html=1;arcSize=4;" vertex="1" parent="1">
                    <mxGeometry x="80" y="190" width="590" height="520" as="geometry"/>
                </mxCell>
                <mxCell id="3" value="&lt;h1&gt;Bluetooth Control&lt;/h1&gt;" style="text;html=1;align=center;verticalAlign=middle;whiteSpace=wrap;rounded=0;" vertex="1" parent="1">
                    <mxGeometry x="260" y="210" width="230" height="60" as="geometry"/>
                </mxCell>
                <mxCell id="6" value="&lt;h1&gt;&lt;i&gt;turn On/Off&lt;/i&gt;&lt;/h1&gt;" style="text;html=1;align=left;verticalAlign=middle;whiteSpace=wrap;rounded=0;" vertex="1" parent="1">
                    <mxGeometry x="100" y="310" width="230" height="40" as="geometry"/>
                </mxCell>
                <mxCell id="7" value="&lt;h1&gt;&lt;i&gt;List&lt;/i&gt;&lt;/h1&gt;" style="text;html=1;align=left;verticalAlign=middle;whiteSpace=wrap;rounded=0;" vertex="1" parent="1">
                    <mxGeometry x="100" y="360" width="230" height="40" as="geometry"/>
                </mxCell>
            </root>
        </mxGraphModel>
    </diagram>
</mxfile>